HIERARCHY
ROOT joint_Root
{
	OFFSET 0.0 0.0 0.0
	CHANNELS 6 Xposition Yposition Zposition Zrotation Xrotation Yrotation 
	JOINT Hips
	{
		OFFSET 4.5925 91.4895 -427.239
		CHANNELS 6 Xposition Yposition Zposition Zrotation Xrotation Yrotation 
		JOINT Spine
		{
			OFFSET 15.7357 0.0 0.0
			CHANNELS 6 Xposition Yposition Zposition Zrotation Xrotation Yrotation 
			JOINT Chest
			{
				OFFSET 8.98455 -0.406207 0.0
				CHANNELS 6 Xposition Yposition Zposition Zrotation Xrotation Yrotation 
				JOINT Neck
				{
					OFFSET 16.3773 0.0 0.0
					CHANNELS 6 Xposition Yposition Zposition Zrotation Xrotation Yrotation 
					JOINT Head
					{
						OFFSET 6.45672 0.0 0.0
						CHANNELS 6 Xposition Yposition Zposition Zrotation Xrotation Yrotation 
						End Site
						{
							OFFSET 0.0 0.0 0.0
						}
					}
				}
				JOINT Shoulder_L
				{
					OFFSET 12.9942 -0.242716 4.98039
					CHANNELS 6 Xposition Yposition Zposition Zrotation Xrotation Yrotation 
					JOINT UpperArm_L
					{
						OFFSET 5.34809 0.0 0.0
						CHANNELS 6 Xposition Yposition Zposition Zrotation Xrotation Yrotation 
						JOINT LowerArm_L
						{
							OFFSET 24.3286 1.87007e-05 0.0
							CHANNELS 6 Xposition Yposition Zposition Zrotation Xrotation Yrotation 
							JOINT Hand_L
							{
								OFFSET 22.2916 0.0 0.0
								CHANNELS 6 Xposition Yposition Zposition Zrotation Xrotation Yrotation 
								End Site
								{
									OFFSET 0.0 0.0 0.0
								}
							}
						}
					}
				}
				JOINT Shoulder_R
				{
					OFFSET 12.9945 -0.242716 -4.98039
					CHANNELS 6 Xposition Yposition Zposition Zrotation Xrotation Yrotation 
					JOINT UpperArm_R
					{
						OFFSET -5.34813 0.0 0.0
						CHANNELS 6 Xposition Yposition Zposition Zrotation Xrotation Yrotation 
						JOINT LowerArm_R
						{
							OFFSET -24.3289 0.000322201 0.0
							CHANNELS 6 Xposition Yposition Zposition Zrotation Xrotation Yrotation 
							JOINT Hand_R
							{
								OFFSET -22.2915 -0.000108084 0.0
								CHANNELS 6 Xposition Yposition Zposition Zrotation Xrotation Yrotation 
								End Site
								{
									OFFSET 0.0 0.0 0.0
								}
							}
						}
					}
				}
			}
		}
		JOINT UpperLeg_L
		{
			OFFSET -2.19248 -6.46944 0.0
			CHANNELS 6 Xposition Yposition Zposition Zrotation Xrotation Yrotation 
			JOINT LowerLeg_L
			{
				OFFSET 39.0811 0.0 -1.23785e-05
				CHANNELS 6 Xposition Yposition Zposition Zrotation Xrotation Yrotation 
				JOINT Foot_L
				{
					OFFSET 40.9854 0.0 -1.26872e-05
					CHANNELS 6 Xposition Yposition Zposition Zrotation Xrotation Yrotation 
					JOINT Toes_L
					{
						OFFSET 11.7543 0.0 0.0
						CHANNELS 6 Xposition Yposition Zposition Zrotation Xrotation Yrotation 
						End Site
						{
							OFFSET 0.0 0.0 0.0
						}
					}
				}
			}
		}
		JOINT UpperLeg_R
		{
			OFFSET -2.19251 6.46944 0.0
			CHANNELS 6 Xposition Yposition Zposition Zrotation Xrotation Yrotation 
			JOINT LowerLeg_R
			{
				OFFSET -39.0811 -0.00228153 -0.0401928
				CHANNELS 6 Xposition Yposition Zposition Zrotation Xrotation Yrotation 
				JOINT Foot_R
				{
					OFFSET -40.9854 0.0 0.0
					CHANNELS 6 Xposition Yposition Zposition Zrotation Xrotation Yrotation 
					JOINT Toes_R
					{
						OFFSET -11.7543 0.0 0.0
						CHANNELS 6 Xposition Yposition Zposition Zrotation Xrotation Yrotation 
						End Site
						{
							OFFSET 0.0 0.0 0.0
						}
					}
				}
			}
		}
	}
}
MOTION
Frames:	6
Frame Time:	0.0333333
0.000000 0.000000 0.000000 0.000000 0.000000 -0.000000 5.861040 91.216500 1.860150 89.510400 -10.048900 2.571850 15.735700 0.000005 -0.000001 74.204900 85.081300 -70.663700 8.984550 -0.406207 -0.000000 1.800420 -2.860220 7.122080 16.377300 -0.000001 -0.000001 8.237130 -3.926740 -2.871380 6.456720 -0.000001 -0.000000 2.542210 -5.851690 -2.399020 12.994200 -0.242716 4.980390 -85.386300 -9.319800 -63.512600 5.348090 -0.000007 -0.000001 -36.741500 -63.801300 -80.483300 24.328600 0.000019 0.000005 8.933300 7.761980 -49.331300 22.291600 -0.000001 0.000005 23.555500 5.404640 -3.089000 12.994500 -0.242716 -4.980390 87.458500 9.848460 -75.452300 -5.348130 -0.000001 -0.000004 -56.418500 20.484700 -7.165570 -24.328900 0.000322 -0.000009 0.112782 0.217667 -27.612500 -22.291500 -0.000108 -0.000004 16.293700 5.421210 -3.639890 -2.192480 -6.469440 -0.000000 -179.932000 -19.112600 -3.413930 39.081100 -0.000007 -0.000012 -0.113862 0.229673 26.370400 40.985400 -0.000006 -0.000013 3.503430 3.106890 -71.056800 11.754300 -0.000000 0.000003 -0.000271 -0.002391 -16.666900 -2.192510 6.469440 -0.000001 171.704000 19.361400 175.557000 -39.081100 -0.002282 -0.040193 -0.112842 0.241753 25.662600 -40.985400 0.000008 0.000006 1.051330 20.575600 -68.127200 -11.754300 -0.000006 -0.000006 -0.000062 -0.001030 -16.615600
0.000000 0.000000 0.000000 0.000000 0.000000 -0.000000 5.743630 91.220100 1.921410 89.578400 -9.792960 2.567010 15.735700 0.000005 -0.000001 74.589300 85.125100 -71.170000 8.984550 -0.406207 -0.000000 1.727100 -2.769350 6.875310 16.377300 -0.000001 -0.000001 8.274680 -3.929420 -2.836050 6.456720 -0.000001 -0.000000 2.607820 -5.898630 -2.253730 12.994200 -0.242716 4.980390 -85.493300 -9.053070 -63.392400 5.348090 -0.000007 -0.000001 -36.411000 -62.847400 -79.359400 24.328600 0.000019 0.000005 8.373530 6.714810 -51.539600 22.291600 -0.000001 0.000005 24.027000 5.403840 -3.062980 12.994500 -0.242716 -4.980390 87.440200 9.887150 -75.406200 -5.348130 -0.000001 -0.000004 -56.617100 20.771500 -7.200860 -24.328900 0.000322 -0.000009 0.051513 0.101266 -27.442400 -22.291500 -0.000108 -0.000004 16.438600 5.418810 -3.559240 -2.192480 -6.469440 -0.000000 -179.878000 -19.111600 -3.341810 39.081100 -0.000007 -0.000012 -0.115067 0.232792 26.302900 40.985400 -0.000006 -0.000013 3.478340 3.379530 -71.051100 11.754300 -0.000000 0.000003 -0.000273 -0.002402 -16.667300 -2.192510 6.469440 -0.000001 171.682000 19.454100 175.647000 -39.081100 -0.002282 -0.040193 -0.116791 0.249610 25.694900 -40.985400 0.000008 0.000006 1.208980 20.413900 -68.297300 -11.754300 -0.000006 -0.000006 -0.000202 -0.003327 -16.708900
0.000000 0.000000 0.000000 0.000000 0.000000 -0.000000 5.604120 91.223300 1.987890 89.635100 -9.491030 2.570910 15.735700 0.000005 -0.000001 75.186100 85.175300 -71.910100 8.984550 -0.406207 -0.000000 1.648370 -2.640490 6.585100 16.377300 -0.000001 -0.000001 8.365600 -3.933930 -2.765370 6.456720 -0.000001 -0.000000 2.518330 -5.918170 -2.203030 12.994200 -0.242716 4.980390 -85.698900 -8.593910 -63.283600 5.348090 -0.000007 -0.000001 -35.093500 -61.189000 -76.836900 24.328600 0.000019 0.000005 7.151050 5.067940 -54.858200 22.291600 -0.000001 0.000005 24.704000 5.402290 -3.011970 12.994500 -0.242716 -4.980390 87.441500 9.884910 -75.410500 -5.348130 -0.000001 -0.000004 -56.980800 21.082000 -7.207320 -24.328900 0.000322 -0.000009 0.009346 0.020412 -27.010900 -22.291500 -0.000108 -0.000004 16.531500 5.416170 -3.470530 -2.192480 -6.469440 -0.000000 -179.775000 -19.157400 -3.260750 39.081100 -0.000007 -0.000012 -0.115401 0.233977 26.253300 40.985400 -0.000006 -0.000013 3.459500 3.757290 -71.055100 11.754300 -0.000000 0.000003 -0.000281 -0.002464 -16.669600 -2.192510 6.469440 -0.000001 171.673000 19.599400 175.778000 -39.081100 -0.002282 -0.040193 -0.121452 0.259500 25.677400 -40.985400 0.000008 0.000006 1.082400 20.263000 -68.334600 -11.754300 -0.000006 -0.000006 -0.000043 -0.000717 -16.603000
0.000000 0.000000 0.000000 0.000000 0.000000 -0.000000 5.422270 91.223700 2.063040 89.745200 -9.120650 2.644870 15.735700 0.000005 -0.000001 76.318400 85.216600 -73.214900 8.984550 -0.406207 -0.000000 1.604100 -2.428260 6.236220 16.377300 -0.000001 -0.000001 8.415140 -3.910190 -2.783210 6.456720 -0.000001 -0.000000 2.477280 -5.990130 -2.102780 12.994200 -0.242716 4.980390 -86.030200 -7.951920 -63.360100 5.348090 -0.000007 -0.000001 -33.384000 -58.624800 -73.224500 24.328600 0.000019 0.000005 6.032950 3.549530 -59.644100 22.291600 -0.000001 0.000005 25.054200 5.397940 -2.870840 12.994500 -0.242716 -4.980390 87.441500 9.907160 -75.441200 -5.348130 -0.000001 -0.000004 -57.373400 21.566400 -7.230210 -24.328900 0.000322 -0.000009 -0.087125 -0.174337 -26.272500 -22.291500 -0.000108 -0.000004 16.673100 5.415990 -3.464520 -2.192480 -6.469440 -0.000000 -179.672000 -19.188800 -3.085790 39.081100 -0.000007 -0.000012 -0.117350 0.238721 26.177800 40.985400 -0.000006 -0.000013 3.424510 4.173130 -71.053800 11.754300 -0.000000 0.000003 -0.000282 -0.002472 -16.669800 -2.192510 6.469440 -0.000001 171.592000 19.808800 175.987000 -39.081100 -0.002282 -0.040193 -0.128376 0.273517 25.709000 -40.985400 0.000008 0.000006 1.003620 20.118200 -68.437200 -11.754300 -0.000006 -0.000006 -0.000147 -0.002445 -16.673100
0.000000 0.000000 0.000000 0.000000 0.000000 -0.000000 5.203010 91.226200 2.094650 89.792900 -8.559280 2.706580 15.735700 0.000005 -0.000001 77.282000 85.256300 -74.345900 8.984550 -0.406207 -0.000000 1.554170 -2.246570 5.898200 16.377300 -0.000001 -0.000001 8.379530 -3.953620 -2.732310 6.456720 -0.000001 -0.000000 2.491810 -6.059950 -2.131270 12.994200 -0.242716 4.980390 -86.430500 -7.262430 -63.735900 5.348090 -0.000007 -0.000001 -31.985200 -55.040100 -68.827100 24.328600 0.000019 0.000005 5.809090 2.595100 -66.009500 22.291600 -0.000001 0.000005 24.930300 5.391350 -2.658190 12.994500 -0.242716 -4.980390 87.437500 10.008700 -75.559600 -5.348130 -0.000001 -0.000004 -57.743900 22.251000 -7.263170 -24.328900 0.000322 -0.000009 -0.208336 -0.439965 -25.224600 -22.291500 -0.000108 -0.000004 16.871100 5.416160 -3.470210 -2.192480 -6.469440 -0.000000 -179.509000 -18.968100 -3.030100 39.081100 -0.000007 -0.000012 -0.117834 0.239402 26.206600 40.985400 -0.000006 -0.000013 3.365010 4.565800 -71.036600 11.754300 -0.000000 0.000003 -0.000290 -0.002527 -16.671800 -2.192510 6.469440 -0.000001 171.625000 20.114500 176.192000 -39.081100 -0.002282 -0.040193 -0.129188 0.274495 25.766700 -40.985400 0.000008 0.000006 1.149660 19.860100 -68.629100 -11.754300 -0.000006 -0.000006 -0.000045 -0.000747 -16.604200
0.000000 0.000000 0.000000 0.000000 0.000000 -0.000000 4.946170 91.224700 2.104150 89.834900 -7.875220 2.857530 15.735700 0.000005 -0.000001 78.269400 85.256600 -75.491400 8.984550 -0.406207 -0.000000 1.580220 -2.077560 5.580270 16.377300 -0.000001 -0.000001 8.234830 -4.014960 -2.602730 6.456720 -0.000001 -0.000000 2.492230 -5.962680 -2.348400 12.994200 -0.242716 4.980390 -87.004800 -6.289220 -64.469700 5.348090 -0.000007 -0.000001 -30.397900 -50.332400 -63.451600 24.328600 0.000019 0.000005 6.046170 1.824520 -73.266400 22.291600 -0.000001 0.000005 24.492100 5.381650 -2.350360 12.994500 -0.242716 -4.980390 87.446300 10.053000 -75.667400 -5.348130 -0.000001 -0.000004 -58.240100 22.930400 -7.472690 -24.328900 0.000322 -0.000009 -0.163068 -0.369299 -23.676400 -22.291500 -0.000108 -0.000004 16.746500 5.417890 -3.528230 -2.192480 -6.469440 -0.000000 -179.286000 -18.646200 -2.923990 39.081100 -0.000007 -0.000012 -0.121957 0.246890 26.288300 40.985400 -0.000006 -0.000013 3.279820 4.961830 -71.021600 11.754300 -0.000000 0.000003 -0.000307 -0.002651 -16.676200 -2.192510 6.469440 -0.000001 171.627000 20.619900 176.505000 -39.081100 -0.002282 -0.040193 -0.132218 0.279821 25.842900 -40.985400 0.000008 0.000006 1.251990 19.680700 -68.805300 -11.754300 -0.000006 -0.000006 -0.013641 -0.016288 -16.564300
